<?xml version="1.0" encoding="utf-8" ?><svg xmlns="http://www.w3.org/2000/svg" xmlns:xlink="http://www.w3.org/1999/xlink" width="1024" height="1024" viewBox="0 0 1024 1024"><path d="M0 0L1024 0L1024 1024L0 1024L0 0Z"/><path fill="#EF1445" d="M822.173 159.788L823.611 159.699C790.631 209.753 759.508 261.063 726.708 311.24C725.184 313.572 723.599 315.991 722.199 318.387L722.78 319.629C771.635 269.12 819.994 218.134 867.852 166.679L868.464 168.225C835.229 211.359 802.972 255.237 771.718 299.826C748.733 332.031 724.236 365.657 702.515 398.629L703.235 399.636L806.774 291.394C830.067 267.223 853.086 242.789 875.824 218.096L876.559 219.645C822.693 286.578 772.285 357.871 723.327 428.44C706.027 452.86 689.256 477.651 673.027 502.795L674.126 503.01C696.579 476.38 719.821 450.426 743.822 425.183C764.399 403.9 784.798 382.445 805.017 360.822C813.425 351.859 822.122 342.968 830.239 333.759L831.228 334.764C809.279 362.702 787.632 390.875 766.29 419.279C727.322 470.413 688.65 522.143 653.555 575.999L654.174 577.125C664.493 565.896 676.016 554.481 686.703 543.555L734.02 494.915L840.639 383.74L842.014 383.698C809.348 424.245 777.043 465.082 745.104 506.205L611.395 677.355C613.041 679.096 612.932 678.428 615.025 677.303C636.797 655.988 662.376 633.05 684.871 612.535L777.912 527.136L778.476 528.691C753.562 557.07 728.904 585.674 704.505 614.497L612.299 721.719L546.029 798.951C533.306 813.696 519.079 829.323 506.971 844.407L505.798 843.747C511.462 833.38 517.52 819.266 522.672 808.379L555.242 739.859C563.526 722.676 572.032 705.601 580.758 688.638C584.917 680.469 588.872 672.454 593.206 664.348C606.091 640.248 621.189 618.579 635.685 595.74C630.127 600.833 623.238 608.625 617.881 614.21L584.849 648.715C566.961 667.664 547.619 686.788 530.653 706.54L529.582 705.969C559.714 654.722 589.144 603.065 617.863 551.013C631.983 525.299 646.514 499.82 658.592 473.066C661.985 465.549 665.97 457.573 668.89 449.883C641.475 479.509 614.366 509.416 587.566 539.599C526.649 609.688 469.609 683.055 416.703 759.372C416.29 758.716 416.014 758.259 415.632 757.596L460.161 560.529L459.3 558.64C441.771 594.59 426.97 631.807 415.023 669.977L413.505 669.374C415.831 659.516 417.687 649.409 419.821 639.487L433.153 578.468C435.309 568.501 437.711 558.588 440.355 548.739C441.23 545.392 443.979 534.366 445.338 531.744C451.036 520.744 458.45 505.835 465.271 495.761C471.485 486.583 480.137 477.312 486.436 468.189C497.719 451.848 508.816 436.037 520.718 420.186L522.177 420.632C511.676 446.488 502.999 473.048 496.21 500.116C494.144 508.081 491.723 516.387 489.907 524.325C488.954 528.491 488.239 535.664 487.658 540.071C490.505 534.1 493.066 526.963 495.564 520.773C502.343 503.974 508.174 486.747 514.608 469.813C515.169 470.454 515.44 470.664 515.795 471.412C511.796 503.477 502.439 538.948 494.11 570.11C490.158 584.894 486.957 600.174 482.424 614.777C491.721 600.979 501.244 587.335 510.989 573.85C539.268 535.433 570.045 498.323 600.149 461.303C621.302 435.292 642.782 409.344 665.218 384.455C669.654 379.533 673.686 374.364 678.232 369.463L678.731 367.209C635.332 405.113 591.561 442.591 547.426 479.635C557.95 465.86 571.511 451.134 582.976 438.013L629.568 384.006L735.169 260.578C764.097 227.129 794.038 193.941 822.173 159.788Z"/><path fill="#40060B" d="M601.741 689.694C603.891 686.88 609.109 679.485 611.395 677.355C613.041 679.096 612.932 678.428 615.025 677.303C610.559 681.909 606.62 685.627 601.741 689.694Z"/><path fill="#771119" d="M678.731 367.209C679.713 365.903 681.132 364.851 682.488 363.956C683.109 363.538 683.728 363.117 684.344 362.692C682.404 364.894 680.273 367.38 678.232 369.463L678.731 367.209Z"/><path fill="#40060B" d="M698.594 404.395C699.901 402.3 700.875 400.539 702.515 398.629L703.235 399.636C701.572 401.708 700.59 402.685 698.594 404.395Z"/><path fill="#771119" d="M673.027 502.795L674.126 503.01C672.502 505.142 670.925 507.081 669.097 509.047C670.39 506.787 671.365 504.829 673.027 502.795Z"/><path fill="#40060B" d="M722.199 318.387L722.78 319.629C722.296 320.148 720.54 322.259 719.849 322.207C719.37 321.512 721.71 318.964 722.199 318.387Z"/><path fill="#40060B" d="M459.3 558.64C459.502 557.875 459.809 557.155 460.083 556.413L460.021 556.595L460.521 555.823L460.578 555.828L460.639 555.779C461.052 556.21 460.281 559.856 460.161 560.529L459.3 558.64Z"/><path fill="#40060B" d="M653.555 575.999L654.174 577.125C653.789 577.515 652.946 578.644 652.31 578.619L652.244 578.537C652.145 577.903 653.214 576.509 653.555 575.999Z"/><path fill="#EF1445" d="M519.797 156.813C506.526 202.945 495.925 250.621 484.319 297.215C481.012 310.493 477.754 324.485 475.13 337.892L477.133 339.039C486.668 317.13 494.529 295.641 502.749 273.227C509.888 254.192 516.715 235.041 523.227 215.783L524.248 216.25C517.855 253.884 510.883 291.417 503.334 328.836C499.219 349.622 494.639 372.721 488.255 392.911C486.157 399.548 471.201 422.195 467.056 429.02L446.518 462.59C443.498 467.45 438.727 475.529 435.413 479.902C438.162 453.191 441.226 423.865 442.742 396.994C442.207 395.839 441.939 395.393 441.252 394.323C393.487 477.16 344.9 559.52 295.499 641.392L296.197 642.652C324.478 612.106 356.371 582.598 384.843 552.29L385.673 553.242C333.842 631.154 280.796 708.25 226.555 784.504L183.329 846.353C177.597 854.572 169.937 866.862 163.893 874.304C187.621 822.941 208.686 769.698 233.056 718.476C238.804 706.395 245.391 695.275 252.021 683.696C254.844 678.767 258.879 672.331 261.317 667.372C230.116 701.682 199.34 736.375 168.996 771.445L141.016 802.812C137.546 806.749 132.219 812.475 129.146 816.554L127.778 816.494L152.946 776.571C182.13 731.007 211.842 685.783 242.075 640.907C264.056 608.211 284.553 577.568 308.595 546.164L306.841 545.341C269.713 581.561 231.467 615.668 193.44 650.875C183.701 659.892 172.332 669.552 163.062 678.566L161.949 677.481C201.794 628.349 241.305 578.949 280.481 529.283C294.855 510.718 309.051 492.017 323.066 473.18C330.577 463.026 339.831 449.298 347.639 439.819C358.75 426.33 371.99 412.466 383.691 398.973C383.748 397.146 384.25 396.813 384.316 395.198L232.089 523.08L230.987 522.332C236.942 516.437 243.238 508.86 248.766 502.433L275.321 471.392C305.702 435.232 335.838 398.866 365.726 362.297C379.491 345.392 393.198 328.451 406.637 311.28C410.603 306.211 416.14 301.145 420.528 296.253C427.27 288.738 434.184 281.241 441.192 273.976L441.501 271.624L333.017 360.013L331.922 358.945C352.417 335.491 373.423 313.38 394.395 290.535C423.323 258.743 452.515 227.193 481.969 195.888C494.457 182.699 507.416 170.083 519.797 156.813Z"/><path fill="#40060B" d="M384.316 395.198C385.531 393.563 393.131 387.659 394.941 386.296C391.572 390.184 387.359 395.577 383.691 398.973C383.748 397.146 384.25 396.813 384.316 395.198Z"/><path fill="#190708" d="M472.853 348.05L474.085 342.505C474.434 340.987 474.852 339.412 475.13 337.892L477.133 339.039C476.369 341.666 474.463 345.721 473.456 348.669L472.853 348.05Z"/><path fill="#250204" d="M312.439 539.821L313.101 540.624C311.51 542.415 310.204 544.387 308.595 546.164L306.841 545.341C308.691 543.486 310.639 541.709 312.439 539.821Z"/><path fill="#190708" d="M443.746 388.918C443.27 392.081 443.091 393.861 442.742 396.994C442.207 395.839 441.939 395.393 441.252 394.323C441.668 393.085 443.103 390.311 443.746 388.918Z"/><path fill="#250204" d="M441.501 271.624C442.18 270.908 442.728 270.543 443.477 269.937L444.265 269.289L444.494 270.5C443.373 271.552 442.286 272.843 441.192 273.976L441.501 271.624Z"/><path fill="#A21A25" d="M444.265 269.289C444.731 268.791 446.29 266.889 447.131 267.245C447.364 267.914 444.948 270.093 444.494 270.5L444.265 269.289Z"/><path fill="#250204" d="M295.499 641.392L296.197 642.652C295.888 643.037 294.824 644.686 294.207 644.607C293.718 643.794 295.052 642.11 295.499 641.392Z"/><path fill="#771119" d="M312.439 539.821C312.933 539.298 314.553 537.459 315.176 537.411C315.472 537.891 313.389 540.293 313.101 540.624L312.439 539.821Z"/><path fill="#A21A25" d="M473.456 348.669C473.307 349.018 473.159 349.631 472.782 349.84C472.728 349.818 472.675 349.796 472.622 349.775C472.417 349.098 472.63 348.723 472.853 348.05L473.456 348.669Z"/><path fill="#FEFEFE" d="M683.079 155.005L684.056 156.032C642.455 217.548 601.404 279.433 560.907 341.681L507.688 422.425C502.26 430.562 496.532 438.741 491.345 447.019C482.794 460.665 471.772 472.207 461.708 484.76L404.023 556.985L402.797 556.245C407.976 548.548 413.569 538.853 418.671 530.812L467.303 452.534C472.618 443.839 479.838 429.651 484.775 422.493C509.402 386.783 535.772 351.989 561.691 317.214C601.8 262.881 642.264 208.81 683.079 155.005Z"/><path fill="#CDC9C7" d="M694.117 140.206L694.571 141.139C690.865 145.269 687.601 151.517 684.056 156.032L683.079 155.005C686.6 150.174 690.762 145.023 694.117 140.206Z"/><path fill="#A21A25" d="M884.65 208.487L885.554 208.587C883.342 210.442 878.95 216.999 876.559 219.645L875.824 218.096C878.037 215.027 882.33 211.403 884.65 208.487Z"/><path fill="#524345" d="M694.117 140.206C694.493 139.263 702.57 128.263 703.026 128.156C703.63 128.73 701.214 131.952 700.7 132.622C698.691 135.243 696.772 138.763 694.571 141.139L694.117 140.206Z"/><path fill="#D31C2C" d="M873.68 159.964L874.252 161.172C872.427 163.437 870.343 166.019 868.464 168.225L867.852 166.679C868.721 165.291 872.398 161.379 873.68 159.964Z"/><path fill="#D31C2C" d="M413.505 669.374L415.023 669.977L414.472 671.741C413.787 673.922 412.608 676.973 412.293 679.162L411.317 678.841C411.758 676.895 412.222 674.956 412.646 673.006C412.899 671.788 413.186 670.577 413.505 669.374Z"/><path fill="#A21A25" d="M835.747 327.531L836.748 327.869C834.908 329.819 833.071 332.573 831.228 334.764L830.239 333.759C831.451 332.105 834.274 329.229 835.747 327.531Z"/><path fill="#D31C2C" d="M777.912 527.136C778.518 526.273 782.68 522.505 783.603 521.643L783.582 523.165C781.802 524.789 780.095 526.874 778.476 528.691L777.912 527.136Z"/><path fill="#771119" d="M161.949 677.481L163.062 678.566L162.658 678.985C160.237 681.601 158.493 683.211 155.643 685.297C156.798 683.79 158.762 680.837 160.105 679.803L161.949 677.481Z"/><path fill="#D31C2C" d="M161.949 677.481L163.062 678.566L162.658 678.985C161.428 679.551 161.434 679.596 160.105 679.803L161.949 677.481Z"/><path fill="#CDC9C7" d="M398.359 563.136C399.75 560.871 401.291 558.424 402.797 556.245L404.023 556.985C402.407 559.157 400.583 561.313 399.044 563.478L398.359 563.136Z"/><path fill="#40060B" d="M789.867 515.507C787.925 518.647 786.394 520.607 783.582 523.165L783.603 521.643C785.075 519.588 787.945 517.147 789.867 515.507Z"/><path fill="#40060B" d="M843.302 380.614C845.015 378.328 847.027 376.316 849.163 374.428C847.33 377.141 845.801 379.738 843.564 382.144L843.302 380.614Z"/><path fill="#40060B" d="M842.161 320.191C840.596 323.054 839.215 325.674 836.748 327.869L835.747 327.531C837.039 325.508 840.48 321.964 842.161 320.191Z"/><path fill="#D31C2C" d="M514.608 469.813C515.215 467.577 516.319 465.544 517.39 463.507C516.935 465.804 516.444 469.269 515.795 471.412C515.44 470.664 515.169 470.454 514.608 469.813Z"/><path fill="#771119" d="M325.314 366.95C327.198 363.736 327.67 363.176 330.564 360.617L331.182 361.587C329.659 363.159 327.039 365.368 325.314 366.95Z"/><path fill="#771119" d="M877.125 156.172L877.55 157.077C876.263 158.465 875.473 159.755 874.252 161.172L873.68 159.964C874.63 158.659 875.695 157.718 876.79 156.538L877.125 156.172Z"/><path fill="#40060B" d="M412.293 679.162C412.066 680.098 410.91 684.769 410.302 685.21L410.247 685.191C409.934 684.504 410.97 679.555 411.317 678.841L412.293 679.162Z"/><path fill="#771119" d="M123.885 822.85C125.013 820.92 126.436 818.194 127.778 816.494L129.146 816.554C127.089 819.3 126.281 820.296 123.885 822.85Z"/><path fill="#D31C2C" d="M520.718 420.186C523.081 416.15 524.815 414.793 522.177 420.632L520.718 420.186Z"/><path fill="#40060B" d="M877.125 156.172C880.325 151.42 883.05 151.38 877.55 157.077L877.125 156.172Z"/><path fill="#771119" d="M827.041 153.99C826.016 156.003 825.016 157.909 823.611 159.699L822.173 159.788C823.902 157.269 824.986 156.238 827.041 153.99Z"/><path fill="#A21A25" d="M384.843 552.29C388.75 547.358 388.657 549.606 385.673 553.242L384.843 552.29Z"/><path fill="#D31C2C" d="M415.632 757.596C416.014 758.259 416.29 758.716 416.703 759.372C413.981 763.049 415.126 759.938 415.632 757.596Z"/><path fill="#A21A25" d="M506.971 844.407C506.701 844.794 505.41 846.893 504.748 846.694C504.299 846.013 505.459 844.368 505.798 843.747L506.971 844.407Z"/><path fill="#190708" d="M398.284 565.057C397.338 566.119 396.638 567.958 395.522 568.102C395.212 567.196 396.011 566.203 396.612 565.608L398.284 565.057Z"/><path fill="#A21A25" d="M523.227 215.783C523.385 215.095 523.805 212.965 524.522 212.67C525.046 212.852 524.436 215.2 524.365 215.607L524.248 216.25L523.227 215.783Z"/><path fill="#A21A25" d="M230.987 522.332L232.089 523.08C228.789 525.71 228.076 525.482 230.987 522.332Z"/><path fill="#A21A25" d="M840.639 383.74C841.534 382.62 842.386 381.694 843.302 380.614L843.564 382.144L842.014 383.698L840.639 383.74Z"/><path fill="#A21A25" d="M529.582 705.969L530.653 706.54C530.326 706.929 528.726 709.04 528.233 709.074C527.631 708.683 529.401 706.262 529.582 705.969Z"/><path fill="#250204" d="M884.65 208.487C885.899 205.75 888.43 205.164 885.554 208.587L884.65 208.487Z"/><path fill="#D31C2C" d="M331.922 358.945L333.017 360.013C332.334 360.569 331.831 360.999 331.182 361.587L330.564 360.617C331.021 360.064 331.474 359.506 331.922 358.945Z"/><path fill="#524345" d="M398.359 563.136L399.044 563.478C398.648 564.117 398.569 564.356 398.284 565.057L396.612 565.608C397.218 564.681 397.681 564.029 398.359 563.136Z"/></svg>